<?xml version="1.0" encoding="utf-8"?>
<!-- Generator: Adobe Illustrator 19.2.0, SVG Export Plug-In . SVG Version: 6.00 Build 0)  -->
<svg version="1.1" id="Layer_1" xmlns="http://www.w3.org/2000/svg" xmlns:xlink="http://www.w3.org/1999/xlink" x="0px" y="0px"
	 viewBox="0 0 512 512" style="enable-background:new 0 0 512 512;" xml:space="preserve">
<style type="text/css">
	.st0{fill:#F16822;}
	.st1{fill:#229BA2;}
</style>
<g>
	<path class="st0" d="M447.8,200.3v-0.4l0,0c-3.5-103-88-185.4-191.8-185.4S67.7,96.9,64.2,199.8l0,0v0.4c-0.1,2.1-0.1,4.2-0.1,6.3
		s0,4.1,0.1,6.2l-0.1,155.5h129.2c3.2-14.4,16-25.3,31.4-25.3h17.9l0.3-26.7c0-14.1-0.7-16.3-5.6-19.3c-11.3-4.1-18.9-7.9-24.2-11
		c-22.1-14.2-36.8-38.9-36.8-67.1c0-44,35.7-79.7,79.7-79.7s79.7,35.7,79.7,79.7c0,26.5-13,50-32.9,64.5c-0.1,0.1-0.1,0.1-0.2,0.1
		c-0.8,0.6-1.6,1-2.4,1.5c-5.3,3.2-13.4,7.4-26.1,12c-4.9,3-5.6,5.2-5.6,19.3l0,0l0.3,26.7h23.1c15.4,0,28.2,10.8,31.4,25.3h124.6
		V212.7c0.1-2.1,0.1-4.1,0.1-6.2C448,204.4,447.9,202.4,447.8,200.3z"/>
	<path class="st0" d="M291.8,407.3H270c0,8,0,22.7,0,49.2c11.9,21.6,48.4,40.9,87,40.9c89.3,0,90.8-38.7,90.8-38.7v-76.6H323.2
		C320,396.5,307.2,407.3,291.8,407.3z"/>
	<path class="st0" d="M193.4,382.2H64.1v76.5c0,0,1.5,38.7,90.8,38.7c38.7,0,75.1-19.3,87-40.9c0-26.5,0-41.2,0-49.2h-17.2
		C209.4,407.3,196.6,396.5,193.4,382.2z"/>
	<path class="st1" d="M295.3,396.3h-73.9c-10.1,0-18.2-9.5-18.2-21.2v0c0-11.7,8.2-21.2,18.2-21.2h73.9c10.1,0,18.2,9.5,18.2,21.2v0
		C313.5,386.8,305.3,396.3,295.3,396.3z"/>
</g>
</svg>
